<svg xmlns="http://www.w3.org/2000/svg" xmlns:xlink="http://www.w3.org/1999/xlink" width="71" height="71" viewBox="0 0 71 71">
  <defs>
    <clipPath id="clip-ICON_TOOL4">
      <rect width="71" height="71"/>
    </clipPath>
  </defs>
  <g id="ICON_TOOL4" clip-path="url(#clip-ICON_TOOL4)">
    <path id="Union_1" data-name="Union 1" d="M35.054,26.722H7.987A7.986,7.986,0,0,1,4.8,11.412,11.841,11.841,0,0,1,16.771,0h.035A12.144,12.144,0,0,1,26.36,4.674a8.338,8.338,0,0,1,2.826-.5h.091a7.985,7.985,0,0,1,7.9,6.862,7.986,7.986,0,0,1-2.105,15.689ZM8.125,11.668l0,.028a4.664,4.664,0,0,0,0,.709l.131,1.44-1.426.342a4.644,4.644,0,0,0,.9,9.2c.078,0,.159,0,.239-.006h27.1a4.644,4.644,0,0,0,.368-9.264l-1.63-.131.109-1.724v-.215A4.667,4.667,0,0,0,32.476,8.8a4.617,4.617,0,0,0-3.314-1.276H29.1a4.761,4.761,0,0,0-2.49.7l-1.471.9-.83-1.491A8.74,8.74,0,0,0,16.789,3.33h-.153A8.557,8.557,0,0,0,8.125,11.668Z" transform="translate(14 21.999)" fill="#fff"/>
  </g>
</svg>
