<svg xmlns="http://www.w3.org/2000/svg" xmlns:xlink="http://www.w3.org/1999/xlink" width="71" height="71" viewBox="0 0 71 71">
  <defs>
    <clipPath id="clip-ICON_TOOL3">
      <rect width="71" height="71"/>
    </clipPath>
  </defs>
  <g id="ICON_TOOL3" clip-path="url(#clip-ICON_TOOL3)">
    <path id="Icon" d="M40.588,23.176c2.426-.933,3.92-2.318,3.92-4.237,0-4.055-6.691-9.414-14.942-9.414S14.623,14.87,14.623,18.952c0,1.9,1.467,3.278,3.852,4.21v2.332a2.832,2.832,0,0,0,.155.879,3.034,3.034,0,0,0-.588.358,1.872,1.872,0,0,0-.879,1.852l.75,4.379a2.413,2.413,0,0,0,1.818,1.649c1.223,4.562,4.947,9.171,9.833,9.171s8.61-4.609,9.826-9.171a2.392,2.392,0,0,0,1.818-1.649l.757-4.379a2.269,2.269,0,0,0-1.527-2.25,2.7,2.7,0,0,0,.149-.838ZM28.916,13.938v.919a1.548,1.548,0,0,1,.527-.095H29.5a1.494,1.494,0,0,1,.527.095v-.919H36.6l-5.609,2.4a1.426,1.426,0,0,1-.149.534,1.473,1.473,0,0,1-1.352.831H29.43a1.487,1.487,0,0,1-1.48-1.352l-5.6-2.4Zm-8.786,9.718,8.846-.4a9.982,9.982,0,0,1,1.1,0l8.853.4v.737c0,2.791-4.21,5.048-9.4,5.048s-9.387-2.257-9.387-5.048Zm19.794,4.731-.676,4.055a1.872,1.872,0,0,1-.77.277,1.02,1.02,0,0,0-.906.8c-.858,3.981-3.953,8.211-8,8.211s-7.137-4.2-8.008-8.184a1.027,1.027,0,0,0-.912-.8,1.879,1.879,0,0,1-.764-.277l-.676-4.055a1.554,1.554,0,0,1,.595-.324c1.865,1.71,5.528,2.879,9.745,2.879s7.893-1.176,9.752-2.9a1.676,1.676,0,0,1,.635.338Z" transform="translate(6.377 8.474)" fill="#fff"/>
  </g>
</svg>
