<svg xmlns="http://www.w3.org/2000/svg" xmlns:xlink="http://www.w3.org/1999/xlink" width="71" height="71" viewBox="0 0 71 71">
  <defs>
    <clipPath id="clip-ICON_TOOL1">
      <rect width="71" height="71"/>
    </clipPath>
  </defs>
  <g id="ICON_TOOL1" clip-path="url(#clip-ICON_TOOL1)">
    <path id="Icon" d="M38.363,14.422a1,1,0,0,0-.186-.382L35.853,11.1H32.575V7.7h-5V1.154a1.009,1.009,0,0,0-2.018,0V7.7H20.791v3.4H17.458L15.135,14.04a1,1,0,0,0-.2.447,1.006,1.006,0,0,0-.146,1.121l4.236,8.41.061.172a1.009,1.009,0,0,0,.951.671h.751v2.723A1.009,1.009,0,0,0,21.8,28.592h.547V43.1h8.469V28.592h.75a1.009,1.009,0,0,0,1.009-1.009V24.86h.752a1.009,1.009,0,0,0,.951-.671l4.3-8.581A1.006,1.006,0,0,0,38.363,14.422Zm-19.927-1.3H21.8a1.009,1.009,0,0,0,1.009-1.009V9.723h7.748V12.11a1.009,1.009,0,0,0,1.009,1.009h3.309l1.064,1.346H17.372Zm.078,5.392-1.36-2.7h2.641l.855,2.7Zm2.139,4.245-1.461-2.9h1.883l.918,2.9ZM21.2,15.81h4.927v2.7H22.06Zm9.352,8.378v2.386H22.809V24.188c0-.03-.006-.057-.009-.086h7.766C30.563,24.131,30.557,24.158,30.557,24.188Zm-8.071-4.331h3.646v2.9H23.4Zm7.831,2.9h-2.84v-2.9h3.757Zm-2.84-4.245v-2.7h5.038l-.855,2.7Zm5.238,4.245h-.987l.918-2.9h1.53Zm2.139-4.245H33.072l.855-2.7h2.288Z" transform="translate(9.316 13.855)" fill="#fff"/>
  </g>
</svg>
